<?xml version="1.0" encoding="UTF-8" standalone="no"?>
<svg
   width="205"
   height="25"
   viewBox="0 0 205 25"
   version="1.1"
   id="svg2"
   sodipodi:docname="logo-1 copy.svg"
   inkscape:version="1.3.2 (091e20e, 2023-11-25)"
   xmlns:inkscape="http://www.inkscape.org/namespaces/inkscape"
   xmlns:sodipodi="http://sodipodi.sourceforge.net/DTD/sodipodi-0.dtd"
   xmlns="http://www.w3.org/2000/svg"
   xmlns:svg="http://www.w3.org/2000/svg"
   xmlns:rdf="http://www.w3.org/1999/02/22-rdf-syntax-ns#"
   xmlns:cc="http://creativecommons.org/ns#"
   xmlns:dc="http://purl.org/dc/elements/1.1/">
  <sodipodi:namedview
     id="namedview2"
     pagecolor="#ffffff"
     bordercolor="#111111"
     borderopacity="1"
     inkscape:showpageshadow="0"
     inkscape:pageopacity="0"
     inkscape:pagecheckerboard="1"
     inkscape:deskcolor="#d1d1d1"
     inkscape:zoom="3.2087076"
     inkscape:cx="102.68932"
     inkscape:cy="36.307453"
     inkscape:window-width="1464"
     inkscape:window-height="978"
     inkscape:window-x="48"
     inkscape:window-y="116"
     inkscape:window-maximized="0"
     inkscape:current-layer="svg2" />
  <!-- Generator: Sketch 53 (72520) - https://sketchapp.com -->
  <title
     id="title1">AIChE_Global_Home_Logo_Tagline_Below_PMS2925</title>
  <desc
     id="desc1">Created with Sketch.</desc>
  <defs
     id="defs1">
    <polygon
       id="path-1"
       points="0.06,0.708 45.723,0.708 45.723,27.861 0.06,27.861 " />
    <polygon
       id="path-3"
       points="0.997,0.91 6.841,0.91 6.841,4.939 0.997,4.939 " />
  </defs>
  <g
     id="AIChE_Global_Home_Logo_Tagline_Below_PMS2925"
     stroke="none"
     stroke-width="1"
     fill="none"
     fill-rule="evenodd"
     transform="translate(-40.517404,3.7268367)"
     style="fill:#99232e;fill-opacity:1">
    <path
       d="m 48.936904,17.456163 c -0.114,-0.083 -0.224,-0.171 -0.332,-0.263 -0.071,-0.058 -0.131,-0.09 -0.179,-0.094 h -0.199 c -0.022,10e-4 -0.042,0.016 0.052,0.094 0.115,0.092 0.235,0.18 0.354,0.263 0.079,0.053 0.138,0.081 0.18,0.087 h 0.177 c 0.02,-0.004 0.032,-0.019 -0.053,-0.087 z m 3.152,-5.663 c 0.106,-0.011 0.163,-0.065 0.172,-0.163 -0.006,-0.165 -0.006,-0.331 -0.009,-0.498 -0.015,-0.102 -0.075,-0.157 -0.18,-0.167 h -0.527 c -0.105,0.01 -0.161,0.065 -0.169,0.167 0.008,0.167 0.012,0.333 0.022,0.498 0.014,0.098 0.074,0.152 0.18,0.163 z m -4.195,-8.3439995 h -0.377 c -0.079,0.01 -0.141,0.055 -0.181,0.143 -0.056,0.144 -0.11,0.289 -0.158,0.438 -0.024,0.092 0.002,0.139 0.078,0.152 h 0.395 c 0.083,-0.013 0.145,-0.06 0.179,-0.152 0.048,-0.149 0.094,-0.294 0.142,-0.438 0.02,-0.088 -0.005,-0.133 -0.078,-0.143 z m -0.774,12.1169995 c -0.061,-0.077 -0.119,-0.117 -0.183,-0.124 h -0.265 c -0.047,0.007 -0.045,0.047 0.008,0.124 0.094,0.122 0.19,0.243 0.287,0.36 0.066,0.072 0.126,0.11 0.181,0.116 h 0.248 c 0.047,-0.006 0.046,-0.042 -0.008,-0.116 -0.09,-0.117 -0.179,-0.238 -0.268,-0.36 z m 0.71,-2.05 c -0.034,-0.092 -0.096,-0.141 -0.179,-0.149 h -0.395 c -0.076,0.008 -0.102,0.057 -0.078,0.149 0.048,0.149 0.102,0.294 0.158,0.438 0.04,0.087 0.102,0.133 0.181,0.143 h 0.377 c 0.073,-0.01 0.098,-0.056 0.078,-0.143 -0.048,-0.144 -0.094,-0.289 -0.142,-0.438 z m -1.124,-6.9349995 h 0.434 c 0.092,-0.009 0.148,-0.064 0.172,-0.168 0.02,-0.166 0.047,-0.331 0.074,-0.497 0.01,-0.1 -0.028,-0.153 -0.116,-0.164 h -0.424 c -0.086,0.011 -0.142,0.064 -0.17,0.164 -0.031,0.166 -0.06,0.331 -0.086,0.497 -0.005,0.104 0.033,0.159 0.116,0.168 z m 3.014,5.0489995 c -0.016,-0.165 -0.03,-0.331 -0.044,-0.498 -0.02,-0.102 -0.076,-0.157 -0.181,-0.167 h -0.493 c -0.095,0.01 -0.146,0.065 -0.143,0.167 0.018,0.167 0.034,0.333 0.056,0.498 0.022,0.098 0.077,0.152 0.179,0.163 h 0.48 c 0.098,-0.011 0.146,-0.065 0.146,-0.163 z m 1.331,6.679 c -0.061,-0.036 -0.103,-0.055 -0.141,-0.059 h -0.152 l -0.01,0.004 c 0.003,0.013 0.024,0.029 0.064,0.055 0.106,0.054 0.21,0.105 0.315,0.15 0.066,0.027 0.116,0.044 0.145,0.046 h 0.118 l 0.006,-0.002 c -0.008,-0.012 -0.02,-0.022 -0.066,-0.044 -0.091,-0.045 -0.185,-0.096 -0.279,-0.15 z m -0.105,-0.766 h 0.247 c 0.05,-0.006 0.06,-0.033 0.034,-0.087 -0.046,-0.083 -0.092,-0.171 -0.14,-0.263 -0.036,-0.058 -0.082,-0.09 -0.141,-0.094 h -0.283 c -0.023,10e-4 -0.082,0.008 -0.036,0.094 0.058,0.092 0.113,0.18 0.173,0.263 0.044,0.053 0.092,0.081 0.146,0.087 z m -1.431,-3.446 h 0.428 c 0.085,-0.01 0.121,-0.056 0.116,-0.143 -0.029,-0.144 -0.058,-0.289 -0.084,-0.438 -0.022,-0.092 -0.082,-0.141 -0.177,-0.149 h -0.449 c -0.088,0.008 -0.124,0.057 -0.118,0.149 0.036,0.149 0.068,0.294 0.104,0.438 0.032,0.087 0.09,0.133 0.18,0.143 z m -2.669,-2.304 h 0.424 c 0.088,-0.011 0.126,-0.065 0.116,-0.163 -0.027,-0.165 -0.054,-0.331 -0.074,-0.498 -0.024,-0.102 -0.08,-0.157 -0.172,-0.167 h -0.434 c -0.083,0.01 -0.121,0.065 -0.116,0.167 0.026,0.167 0.055,0.333 0.086,0.498 0.028,0.098 0.084,0.152 0.17,0.163 z m 2.906,5.4 c -0.056,-0.058 -0.11,-0.09 -0.164,-0.094 h -0.253 c -0.044,0.004 -0.042,0.036 0.01,0.094 0.09,0.092 0.181,0.18 0.275,0.263 0.06,0.053 0.114,0.081 0.166,0.087 h 0.219 c 0.039,-0.006 0.038,-0.033 -0.012,-0.087 -0.078,-0.083 -0.162,-0.171 -0.241,-0.263 z m -1.236,-1.151 h 0.307 c 0.057,-0.006 0.07,-0.042 0.036,-0.116 -0.068,-0.117 -0.134,-0.238 -0.2,-0.36 -0.046,-0.077 -0.103,-0.117 -0.175,-0.124 h -0.333 c -0.064,0.007 -0.076,0.047 -0.04,0.124 0.074,0.122 0.152,0.243 0.226,0.36 0.051,0.072 0.111,0.11 0.179,0.116 z m -4.714,-10.2899995 h -0.232 c -0.049,0.011 -0.089,0.064 -0.121,0.164 -0.05,0.166 -0.094,0.331 -0.131,0.497 -0.023,0.104 -0.008,0.159 0.037,0.168 h 0.233 c 0.059,-0.009 0.096,-0.064 0.126,-0.168 0.036,-0.166 0.078,-0.331 0.122,-0.497 0.025,-0.1 0.012,-0.153 -0.034,-0.164 z m -0.088,5.3799995 c -0.03,-0.102 -0.067,-0.157 -0.126,-0.167 h -0.233 c -0.045,0.01 -0.06,0.065 -0.037,0.167 0.037,0.167 0.081,0.333 0.131,0.498 0.032,0.098 0.072,0.152 0.121,0.163 h 0.232 c 0.046,-0.011 0.059,-0.065 0.034,-0.163 -0.044,-0.165 -0.086,-0.331 -0.122,-0.498 z m -0.259,-2.0909995 c -0.002,-0.088 -0.002,-0.177 -0.002,-0.27 0,-0.088 0,-0.178 0.002,-0.266 -0.002,-0.109 -0.03,-0.167 -0.082,-0.178 h -0.243 c -0.05,0.011 -0.074,0.069 -0.084,0.178 0,0.088 -0.002,0.178 -0.002,0.266 0,0.093 0.002,0.182 0.002,0.27 0.01,0.111 0.034,0.169 0.084,0.179 h 0.243 c 0.052,-0.01 0.08,-0.068 0.082,-0.179 z m 2.302,-6.936 c 0.046,-0.008 0.102,-0.048 0.172,-0.124 0.103,-0.123 0.215,-0.243 0.325,-0.36 0.061,-0.073 0.081,-0.11 0.051,-0.119 h -0.169 c -0.042,0.009 -0.095,0.047 -0.172,0.119 -0.111,0.117 -0.227,0.237 -0.336,0.36 -0.064,0.076 -0.084,0.116 -0.054,0.124 z m -0.257,2.077 h 0.317 c 0.07,-0.013 0.126,-0.06 0.169,-0.152 0.064,-0.149 0.13,-0.294 0.196,-0.438 0.034,-0.088 0.024,-0.133 -0.036,-0.143 h -0.305 c -0.066,0.01 -0.122,0.055 -0.173,0.143 -0.07,0.144 -0.14,0.289 -0.204,0.438 -0.038,0.092 -0.024,0.139 0.036,0.152 z m -1.302,0 h 0.216 c 0.053,-0.013 0.102,-0.06 0.151,-0.152 0.074,-0.149 0.154,-0.294 0.234,-0.438 0.043,-0.09 0.049,-0.133 0.01,-0.143 h -0.21 c -0.046,0.01 -0.096,0.055 -0.152,0.143 -0.085,0.144 -0.165,0.289 -0.243,0.438 -0.041,0.092 -0.047,0.139 -0.006,0.152 z m 1.085,6.9499995 c -0.03,-0.102 -0.078,-0.157 -0.154,-0.167 h -0.348 c -0.068,0.01 -0.094,0.065 -0.08,0.167 0.034,0.167 0.071,0.333 0.112,0.498 0.031,0.098 0.081,0.152 0.151,0.163 h 0.339 c 0.072,-0.011 0.099,-0.065 0.082,-0.163 -0.036,-0.165 -0.074,-0.331 -0.102,-0.498 z m -0.335,-2.8049995 h -0.357 c -0.069,0.011 -0.11,0.069 -0.119,0.178 -0.005,0.088 -0.005,0.178 -0.005,0.266 0,0.093 0,0.182 0.005,0.27 0.009,0.111 0.05,0.169 0.119,0.179 h 0.357 c 0.074,-0.01 0.114,-0.068 0.121,-0.179 -0.003,-0.088 -0.003,-0.177 -0.003,-0.27 0,-0.088 0,-0.178 0.003,-0.266 -0.007,-0.109 -0.047,-0.167 -0.121,-0.178 z m 0.893,5.7699995 h 0.305 c 0.06,-0.01 0.07,-0.056 0.036,-0.143 -0.066,-0.144 -0.132,-0.289 -0.194,-0.438 -0.045,-0.092 -0.101,-0.141 -0.171,-0.149 h -0.317 c -0.06,0.008 -0.074,0.057 -0.036,0.149 0.064,0.149 0.134,0.294 0.204,0.438 0.051,0.087 0.107,0.133 0.173,0.143 z m 0.088,1.469 c -0.07,-0.077 -0.126,-0.117 -0.172,-0.124 h -0.183 c -0.03,0.007 -0.01,0.047 0.054,0.124 0.109,0.122 0.225,0.243 0.336,0.36 0.077,0.072 0.13,0.11 0.172,0.116 h 0.169 c 0.03,-0.006 0.01,-0.042 -0.051,-0.116 -0.11,-0.117 -0.222,-0.238 -0.325,-0.36 z m -1.364,-2.05 c -0.049,-0.092 -0.098,-0.141 -0.151,-0.149 h -0.216 c -0.041,0.008 -0.035,0.057 0.006,0.149 0.078,0.149 0.158,0.294 0.243,0.438 0.056,0.087 0.106,0.133 0.152,0.143 h 0.21 c 0.039,-0.01 0.033,-0.055 -0.01,-0.143 -0.08,-0.144 -0.16,-0.289 -0.234,-0.438 z m 0.738,-7.7639995 h -0.339 c -0.07,0.011 -0.12,0.064 -0.151,0.164 -0.041,0.166 -0.078,0.331 -0.112,0.497 -0.014,0.104 0.012,0.159 0.08,0.168 h 0.348 c 0.076,-0.009 0.124,-0.064 0.154,-0.168 0.028,-0.166 0.066,-0.331 0.102,-0.497 0.017,-0.1 -0.01,-0.153 -0.082,-0.164 z m 1.851,3.289 c 0,-0.088 0,-0.177 0,-0.27 0,-0.088 0,-0.178 0,-0.266 -0.006,-0.109 -0.057,-0.167 -0.147,-0.178 h -0.444 c -0.086,0.011 -0.14,0.069 -0.15,0.178 0,0.088 -0.002,0.178 -0.002,0.266 0,0.093 0.002,0.182 0.002,0.27 0.01,0.111 0.064,0.169 0.15,0.179 h 0.444 c 0.09,-0.01 0.141,-0.068 0.147,-0.179 z m 3.301,6.5249995 c -0.032,-0.077 -0.081,-0.117 -0.163,-0.124 h -0.377 c -0.076,0.007 -0.1,0.047 -0.08,0.124 0.048,0.122 0.096,0.243 0.142,0.36 0.038,0.072 0.093,0.11 0.168,0.116 h 0.348 c 0.068,-0.006 0.096,-0.044 0.078,-0.116 -0.038,-0.117 -0.078,-0.238 -0.116,-0.36 z m 10.265,-2.199 h -0.285 c -0.063,0.008 -0.115,0.057 -0.161,0.149 -0.07,0.149 -0.137,0.294 -0.208,0.438 -0.039,0.087 -0.031,0.133 0.025,0.143 h 0.269 c 0.06,-0.01 0.113,-0.056 0.167,-0.143 0.074,-0.144 0.147,-0.289 0.218,-0.438 0.037,-0.092 0.029,-0.141 -0.025,-0.149 z m -1.034,-2.402 h -0.423 c -0.09,0.01 -0.145,0.065 -0.169,0.167 -0.026,0.167 -0.054,0.333 -0.086,0.498 -0.008,0.098 0.028,0.152 0.112,0.163 h 0.413 c 0.087,-0.011 0.139,-0.065 0.167,-0.163 0.034,-0.165 0.066,-0.331 0.095,-0.498 0.008,-0.102 -0.029,-0.157 -0.109,-0.167 z m -1.831,6.134 h -0.182 c -0.046,0.004 -0.102,0.036 -0.18,0.094 -0.113,0.092 -0.231,0.18 -0.35,0.263 -0.06,0.048 -0.084,0.071 -0.076,0.083 l 0.01,0.004 h 0.159 c 0.04,-0.006 0.098,-0.034 0.18,-0.087 0.125,-0.083 0.251,-0.171 0.375,-0.263 0.069,-0.058 0.091,-0.09 0.064,-0.094 z m 0.589,0 c -0.034,0.004 -0.088,0.036 -0.175,0.094 -0.138,0.092 -0.273,0.18 -0.413,0.263 -0.076,0.048 -0.103,0.071 -0.109,0.083 l 0.006,0.004 h 0.097 c 0.029,-0.006 0.088,-0.035 0.178,-0.087 0.143,-0.083 0.285,-0.171 0.422,-0.263 0.054,-0.035 0.106,-0.072 0.11,-0.093 l -0.004,-10e-4 z m 1.045,-1.657 h -0.239 c -0.061,0.007 -0.118,0.047 -0.18,0.124 -0.092,0.122 -0.187,0.243 -0.285,0.36 -0.055,0.074 -0.064,0.11 -0.02,0.116 h 0.221 c 0.05,-0.006 0.11,-0.044 0.176,-0.116 0.106,-0.117 0.207,-0.238 0.305,-0.36 0.058,-0.077 0.064,-0.117 0.022,-0.124 z m 0.787,0 c -0.04,0.007 -0.093,0.047 -0.166,0.124 -0.105,0.122 -0.219,0.243 -0.333,0.36 -0.057,0.063 -0.081,0.097 -0.073,0.116 h 0.145 c 0.034,-0.006 0.09,-0.044 0.162,-0.116 0.117,-0.117 0.235,-0.238 0.345,-0.36 0.042,-0.046 0.081,-0.096 0.075,-0.121 l -0.01,-0.003 z m 2.715,-6.9369995 c -0.008,-0.109 -0.028,-0.167 -0.07,-0.178 h -0.199 c -0.042,0.011 -0.062,0.069 -0.066,0.178 0.004,0.088 0.004,0.178 0.004,0.266 0,0.093 0,0.182 -0.004,0.27 0.004,0.111 0.024,0.169 0.066,0.179 h 0.199 c 0.042,-0.01 0.062,-0.068 0.07,-0.179 0,-0.088 0,-0.177 0,-0.27 0,-0.088 0,-0.178 0,-0.266 z m -0.298,2.4599995 h -0.193 c -0.043,0.01 -0.081,0.065 -0.109,0.167 -0.04,0.167 -0.084,0.333 -0.127,0.498 -0.025,0.098 -0.02,0.152 0.017,0.163 h 0.194 c 0.041,-0.011 0.075,-0.065 0.105,-0.163 0.052,-0.165 0.094,-0.331 0.135,-0.498 0.02,-0.102 0.013,-0.157 -0.022,-0.167 z m -1.131,-7.3729995 c -0.056,-0.088 -0.104,-0.133 -0.142,-0.143 h -0.169 c -0.032,0.01 -0.026,0.053 0.023,0.143 0.084,0.144 0.162,0.289 0.24,0.438 0.05,0.092 0.1,0.139 0.141,0.152 h 0.178 c 0.029,-0.013 0.022,-0.06 -0.024,-0.152 -0.082,-0.149 -0.162,-0.294 -0.247,-0.438 z m -1.035,0 c -0.054,-0.088 -0.107,-0.133 -0.167,-0.143 h -0.269 c -0.056,0.01 -0.064,0.055 -0.025,0.143 0.071,0.144 0.138,0.289 0.208,0.438 0.046,0.092 0.098,0.139 0.161,0.152 h 0.285 c 0.054,-0.013 0.062,-0.06 0.025,-0.152 -0.071,-0.149 -0.144,-0.294 -0.218,-0.438 z m 0.897,8.0379995 c 0.042,-0.165 0.082,-0.331 0.118,-0.498 0.016,-0.102 -0.004,-0.157 -0.068,-0.167 h -0.313 c -0.066,0.01 -0.112,0.065 -0.14,0.167 -0.033,0.167 -0.069,0.333 -0.109,0.498 -0.018,0.098 0.004,0.152 0.066,0.163 h 0.306 c 0.062,-0.011 0.111,-0.065 0.14,-0.163 z m 0.409,1.737 h -0.178 c -0.041,0.008 -0.091,0.057 -0.141,0.149 -0.078,0.149 -0.157,0.294 -0.24,0.438 -0.049,0.088 -0.055,0.133 -0.023,0.143 h 0.169 c 0.038,-0.01 0.086,-0.056 0.142,-0.143 0.085,-0.144 0.165,-0.289 0.247,-0.438 0.046,-0.092 0.053,-0.141 0.024,-0.149 z m -5.581,2.559 c 0.055,-0.117 0.107,-0.238 0.161,-0.36 0.024,-0.077 -0.004,-0.117 -0.079,-0.124 h -0.397 c -0.084,0.007 -0.14,0.047 -0.176,0.124 -0.046,0.122 -0.088,0.243 -0.132,0.36 -0.019,0.074 0.004,0.11 0.079,0.116 h 0.364 c 0.078,-0.006 0.138,-0.044 0.18,-0.116 z m -2.889,2.324 c -0.035,0.004 -0.063,0.023 -0.077,0.059 -0.018,0.054 -0.038,0.105 -0.054,0.15 -0.01,0.03 0,0.044 0.028,0.046 h 0.141 c 0.028,-0.002 0.056,-0.017 0.082,-0.046 0.032,-0.045 0.065,-0.096 0.098,-0.15 0.018,-0.036 0.005,-0.055 -0.031,-0.059 z m -0.669,-19.20899956 h -0.14 c -0.03,0.003 -0.052,0.018 -0.072,0.046 -0.025,0.046 -0.051,0.096 -0.077,0.154 -0.012,0.034 0,0.05 0.035,0.056 h 0.186 c 0.036,-0.004 0.06,-0.022 0.07,-0.056 0.01,-0.058 0.021,-0.108 0.032,-0.154 0.006,-0.028 -0.005,-0.043 -0.034,-0.046 z m -0.068,19.20899956 h -0.186 c -0.035,0.004 -0.047,0.023 -0.035,0.059 0.026,0.054 0.052,0.105 0.077,0.15 0.02,0.029 0.042,0.044 0.072,0.046 h 0.14 c 0.029,-0.002 0.04,-0.016 0.034,-0.046 -0.011,-0.045 -0.022,-0.096 -0.032,-0.15 -0.01,-0.036 -0.034,-0.055 -0.07,-0.059 z m -0.787,0.059 c -0.038,-0.036 -0.072,-0.055 -0.11,-0.059 h -0.171 c -0.014,0 -0.044,0.008 0.007,0.059 0.068,0.054 0.134,0.105 0.204,0.15 0.044,0.027 0.082,0.044 0.111,0.046 h 0.132 c 0.016,0 0.028,-0.012 -0.01,-0.046 -0.056,-0.045 -0.11,-0.096 -0.163,-0.15 z m 0.733,-0.853 c -0.012,-0.083 -0.022,-0.171 -0.03,-0.263 -0.016,-0.058 -0.047,-0.09 -0.113,-0.094 h -0.303 c -0.058,0.004 -0.086,0.036 -0.078,0.094 0.02,0.092 0.041,0.18 0.065,0.263 0.02,0.053 0.058,0.081 0.115,0.087 h 0.261 c 0.057,-0.006 0.083,-0.034 0.083,-0.087 z m 1.469,-0.263 c 0.012,-0.058 -0.012,-0.09 -0.074,-0.094 h -0.309 c -0.061,0.004 -0.099,0.036 -0.119,0.094 -0.014,0.092 -0.03,0.18 -0.044,0.263 -0.006,0.053 0.018,0.081 0.073,0.087 h 0.268 c 0.056,-0.006 0.096,-0.034 0.119,-0.087 0.028,-0.083 0.056,-0.171 0.086,-0.263 z m 0.63,-3.239 c 0.018,-0.144 0.036,-0.289 0.052,-0.438 0,-0.092 -0.05,-0.141 -0.146,-0.149 h -0.488 c -0.1,0.008 -0.155,0.057 -0.171,0.149 -0.008,0.149 -0.018,0.294 -0.028,0.438 0.004,0.087 0.051,0.133 0.143,0.143 h 0.467 c 0.095,-0.01 0.153,-0.056 0.171,-0.143 z m 2.151,3.145 h -0.245 c -0.056,0.004 -0.11,0.036 -0.17,0.094 -0.089,0.092 -0.179,0.18 -0.271,0.263 -0.05,0.054 -0.056,0.081 -0.016,0.087 h 0.211 c 0.048,-0.006 0.106,-0.034 0.173,-0.087 0.102,-0.083 0.2,-0.171 0.298,-0.263 0.058,-0.058 0.059,-0.09 0.02,-0.094 z m -5.099,-3.002 h 0.458 c 0.092,-0.01 0.142,-0.056 0.148,-0.143 -0.006,-0.144 -0.012,-0.289 -0.016,-0.438 -0.014,-0.092 -0.068,-0.141 -0.167,-0.149 h -0.48 c -0.097,0.008 -0.144,0.057 -0.146,0.149 0.012,0.149 0.025,0.294 0.038,0.438 0.02,0.087 0.073,0.133 0.165,0.143 z m 5.252,-0.73 h -0.471 c -0.097,0.008 -0.161,0.057 -0.189,0.149 -0.03,0.149 -0.062,0.294 -0.091,0.438 -0.014,0.087 0.024,0.133 0.115,0.143 h 0.449 c 0.095,-0.01 0.157,-0.056 0.191,-0.143 0.04,-0.144 0.076,-0.289 0.114,-0.438 0.016,-0.092 -0.026,-0.141 -0.118,-0.149 z m -2.685,4.883 c -0.044,0.004 -0.081,0.023 -0.125,0.059 -0.062,0.054 -0.124,0.105 -0.186,0.15 -0.038,0.03 -0.041,0.044 -0.018,0.046 h 0.138 c 0.032,-0.002 0.073,-0.019 0.121,-0.046 0.078,-0.045 0.154,-0.096 0.228,-0.15 0.022,-0.018 0.066,-0.054 0.02,-0.059 z m 0.991,0.004 v -0.003 l -0.008,-10e-4 h -0.147 c -0.037,0.004 -0.084,0.023 -0.152,0.059 -0.102,0.054 -0.205,0.105 -0.311,0.15 -0.064,0.032 -0.066,0.039 -0.068,0.046 h 0.118 c 0.03,-0.002 0.078,-0.019 0.151,-0.046 0.118,-0.045 0.229,-0.096 0.343,-0.15 0.044,-0.026 0.068,-0.042 0.074,-0.055 z m 0.506,-0.004 c -0.03,0.004 -0.083,0.023 -0.171,0.059 -0.132,0.054 -0.269,0.105 -0.403,0.15 -0.098,0.034 -0.102,0.038 -0.109,0.046 h 0.084 c 0.015,-0.001 0.057,-0.012 0.171,-0.046 0.143,-0.045 0.287,-0.096 0.428,-0.15 0.096,-0.042 0.102,-0.048 0.112,-0.058 l -0.004,-10e-4 z m -6.964,-16.7479995 h -0.307 c -0.068,0.009 -0.128,0.047 -0.179,0.119 -0.074,0.117 -0.152,0.237 -0.226,0.36 -0.036,0.076 -0.024,0.116 0.04,0.124 h 0.331 c 0.074,-0.008 0.131,-0.048 0.177,-0.124 0.066,-0.123 0.132,-0.243 0.2,-0.36 0.034,-0.073 0.021,-0.11 -0.036,-0.119 z m 7.516,1.947 c -0.091,0.01 -0.129,0.055 -0.115,0.143 0.029,0.144 0.061,0.289 0.091,0.438 0.028,0.092 0.092,0.139 0.189,0.152 h 0.471 c 0.092,-0.013 0.134,-0.06 0.118,-0.152 -0.038,-0.149 -0.074,-0.294 -0.114,-0.438 -0.034,-0.088 -0.096,-0.133 -0.191,-0.143 z m 1.079,12.5929995 h 0.296 c 0.066,-0.006 0.124,-0.044 0.184,-0.116 0.082,-0.117 0.162,-0.238 0.241,-0.36 0.042,-0.077 0.036,-0.117 -0.026,-0.124 h -0.322 c -0.075,0.007 -0.132,0.047 -0.184,0.124 -0.07,0.122 -0.143,0.243 -0.219,0.36 -0.038,0.072 -0.03,0.11 0.03,0.116 z m -1.282,-15.95299957 c 0.092,0.084 0.182,0.171 0.271,0.264 0.06,0.059 0.114,0.087 0.174,0.095 h 0.241 c 0.039,-0.008 0.038,-0.037 -0.02,-0.095 -0.098,-0.093 -0.196,-0.18 -0.298,-0.264 -0.067,-0.051 -0.125,-0.08 -0.173,-0.084 h -0.211 c -0.04,0.004 -0.034,0.03 0.016,0.084 z m -0.618,0.264 c -0.068,-0.093 -0.135,-0.18 -0.201,-0.264 -0.046,-0.051 -0.096,-0.08 -0.153,-0.084 h -0.26 c -0.052,0.004 -0.064,0.03 -0.034,0.084 0.056,0.084 0.112,0.171 0.162,0.264 0.042,0.058 0.092,0.087 0.156,0.095 h 0.296 c 0.058,-0.008 0.07,-0.037 0.034,-0.095 z m 2.621,1.62800007 c -0.079,-0.123 -0.159,-0.243 -0.241,-0.36 -0.06,-0.072 -0.118,-0.11 -0.184,-0.119 h -0.296 c -0.06,0.009 -0.068,0.047 -0.03,0.119 0.076,0.117 0.149,0.237 0.219,0.36 0.052,0.076 0.109,0.116 0.184,0.124 h 0.322 c 0.062,-0.008 0.068,-0.048 0.026,-0.124 z m -1.726,0 c -0.054,-0.123 -0.106,-0.243 -0.161,-0.36 -0.042,-0.072 -0.102,-0.11 -0.18,-0.119 h -0.364 c -0.075,0.009 -0.098,0.046 -0.079,0.119 0.044,0.117 0.086,0.237 0.132,0.36 0.036,0.076 0.092,0.116 0.176,0.124 h 0.397 c 0.075,-0.008 0.103,-0.048 0.079,-0.124 z m -1.509,15.5619995 h 0.26 c 0.057,-0.006 0.107,-0.034 0.153,-0.087 0.066,-0.083 0.133,-0.171 0.201,-0.263 0.036,-0.058 0.024,-0.09 -0.034,-0.094 h -0.296 c -0.064,0.004 -0.114,0.036 -0.156,0.094 -0.05,0.092 -0.106,0.18 -0.162,0.263 -0.03,0.054 -0.018,0.081 0.034,0.087 z m -0.732,-5.75 h 0.523 c 0.109,-0.011 0.167,-0.065 0.185,-0.163 0.01,-0.165 0.021,-0.331 0.026,-0.498 -0.005,-0.102 -0.06,-0.157 -0.169,-0.167 h -0.532 c -0.11,0.01 -0.172,0.065 -0.184,0.167 -0.008,0.167 -0.012,0.333 -0.016,0.498 0.004,0.098 0.062,0.152 0.167,0.163 z m 0.062,-2.5729995 h 0.545 c 0.111,-0.01 0.171,-0.068 0.183,-0.179 0.002,-0.088 0.002,-0.177 0.002,-0.27 0,-0.088 0,-0.178 -0.002,-0.266 -0.012,-0.109 -0.072,-0.167 -0.183,-0.178 h -0.545 c -0.111,0.011 -0.171,0.069 -0.183,0.178 0,0.088 0,0.178 0,0.266 0,0.093 0,0.182 0,0.27 0.012,0.111 0.072,0.169 0.183,0.179 z m 1.382,-9.97900007 c 0.088,0.034 0.141,0.052 0.171,0.056 h 0.108 l 0.002,-0.006 c -0.018,-0.013 -0.052,-0.028 -0.11,-0.05 -0.141,-0.058 -0.285,-0.108 -0.428,-0.154 -0.114,-0.034 -0.156,-0.045 -0.171,-0.046 -0.028,0 -0.059,0 -0.084,0.003 0.014,0.01 0.034,0.02 0.109,0.043 0.134,0.046 0.271,0.096 0.403,0.154 z m 0.454,0 c 0.106,0.035 0.158,0.052 0.182,0.056 0.024,0 0.045,0 0.067,-0.003 -0.022,-0.011 -0.105,-0.041 -0.141,-0.053 -0.161,-0.058 -0.325,-0.108 -0.486,-0.154 -0.136,-0.04 -0.174,-0.045 -0.184,-0.046 l -0.052,0.001 c 0.012,0.005 0.04,0.014 0.144,0.045 0.157,0.046 0.315,0.096 0.47,0.154 z m -1.375,6.51100007 h -0.523 c -0.105,0.011 -0.163,0.064 -0.167,0.164 0.004,0.166 0.008,0.331 0.016,0.497 0.012,0.104 0.074,0.159 0.184,0.168 h 0.532 c 0.109,-0.009 0.164,-0.064 0.169,-0.168 -0.005,-0.166 -0.016,-0.331 -0.026,-0.497 -0.018,-0.1 -0.076,-0.153 -0.185,-0.164 z m 2.448,-5.66300007 c 0.119,0.084 0.237,0.171 0.35,0.264 0.078,0.059 0.134,0.087 0.18,0.095 h 0.182 c 0.017,-0.002 0.033,-0.017 -0.064,-0.095 -0.124,-0.093 -0.25,-0.18 -0.375,-0.264 -0.082,-0.051 -0.14,-0.08 -0.18,-0.084 h -0.169 c -0.008,0.015 0.016,0.038 0.076,0.084 z m 2.268,9.13100007 h 0.434 c 0.086,-0.01 0.13,-0.068 0.142,-0.179 0.002,-0.088 0.002,-0.177 0.002,-0.27 0,-0.088 0,-0.178 -0.002,-0.266 -0.012,-0.109 -0.056,-0.167 -0.142,-0.178 h -0.434 c -0.088,0.011 -0.138,0.069 -0.143,0.178 0,0.088 0,0.178 0,0.266 0,0.093 0,0.182 0,0.27 0.005,0.111 0.055,0.169 0.143,0.179 z m 0.699,-7.239 c 0.073,0.076 0.126,0.116 0.166,0.124 h 0.145 l 0.01,-0.003 c 0.006,-0.024 -0.033,-0.076 -0.075,-0.121 -0.11,-0.123 -0.228,-0.243 -0.345,-0.36 -0.072,-0.072 -0.128,-0.11 -0.162,-0.119 h -0.137 l -0.008,0.002 c -0.008,0.02 0.016,0.053 0.073,0.117 0.114,0.117 0.228,0.237 0.333,0.36 z m 1.247,7.239 h 0.318 c 0.062,-0.01 0.098,-0.068 0.11,-0.179 0,-0.088 0.002,-0.177 0.002,-0.27 0,-0.088 -0.002,-0.178 -0.002,-0.266 -0.012,-0.109 -0.048,-0.167 -0.11,-0.178 h -0.318 c -0.07,0.011 -0.104,0.069 -0.108,0.178 0.002,0.088 0.002,0.178 0.002,0.266 0,0.093 0,0.182 -0.002,0.27 0.004,0.111 0.038,0.169 0.108,0.179 z m -4.593,2.5729995 h 0.505 c 0.101,-0.011 0.163,-0.065 0.189,-0.163 0.022,-0.165 0.041,-0.331 0.061,-0.498 0.002,-0.102 -0.047,-0.157 -0.153,-0.167 h -0.516 c -0.108,0.01 -0.168,0.065 -0.19,0.167 -0.013,0.167 -0.028,0.333 -0.048,0.498 -0.002,0.098 0.046,0.152 0.152,0.163 z m 5.627,-5.3799995 c 0.028,0.104 0.066,0.159 0.109,0.168 h 0.193 c 0.035,-0.009 0.042,-0.064 0.022,-0.168 -0.041,-0.166 -0.083,-0.331 -0.135,-0.497 -0.03,-0.1 -0.064,-0.153 -0.105,-0.164 h -0.194 c -0.037,0.011 -0.042,0.064 -0.017,0.164 0.043,0.166 0.087,0.331 0.127,0.497 z m -1.37,0 c 0.028,0.104 0.074,0.159 0.14,0.168 h 0.313 c 0.064,-0.009 0.084,-0.064 0.068,-0.168 -0.036,-0.166 -0.076,-0.331 -0.118,-0.497 -0.029,-0.1 -0.078,-0.153 -0.14,-0.164 h -0.306 c -0.062,0.011 -0.084,0.064 -0.066,0.164 0.04,0.166 0.076,0.331 0.109,0.497 z m -2.013,-0.497 c 0.032,0.166 0.06,0.331 0.086,0.497 0.024,0.104 0.079,0.159 0.169,0.168 h 0.423 c 0.08,-0.009 0.117,-0.064 0.109,-0.168 -0.029,-0.166 -0.061,-0.331 -0.095,-0.497 -0.028,-0.1 -0.08,-0.153 -0.167,-0.164 h -0.413 c -0.084,0.011 -0.12,0.064 -0.112,0.164 z m 0.15,-1.886 c -0.054,-0.149 -0.114,-0.294 -0.174,-0.438 -0.044,-0.088 -0.103,-0.133 -0.181,-0.143 h -0.367 c -0.076,0.01 -0.098,0.055 -0.074,0.143 0.057,0.144 0.108,0.289 0.16,0.438 0.038,0.092 0.1,0.139 0.182,0.152 h 0.384 c 0.074,-0.013 0.098,-0.06 0.07,-0.152 z m -2.213,5.19 h 0.527 c 0.107,-0.01 0.165,-0.068 0.177,-0.179 0,-0.088 0.002,-0.177 0.002,-0.27 0,-0.088 -0.002,-0.178 -0.002,-0.266 -0.012,-0.109 -0.07,-0.167 -0.177,-0.178 h -0.527 c -0.109,0.011 -0.167,0.069 -0.175,0.178 0,0.088 0,0.178 0,0.266 0,0.093 0,0.182 0,0.27 0.008,0.111 0.066,0.169 0.175,0.179 z m 0.324,-3.468 h -0.505 c -0.106,0.011 -0.154,0.064 -0.152,0.164 0.02,0.166 0.035,0.331 0.048,0.497 0.022,0.104 0.082,0.159 0.19,0.168 h 0.516 c 0.106,-0.009 0.155,-0.064 0.153,-0.168 -0.02,-0.166 -0.039,-0.331 -0.061,-0.497 -0.026,-0.1 -0.086,-0.153 -0.189,-0.164 z m 0.587,-5.66300007 c 0.14,0.084 0.275,0.171 0.413,0.264 0.087,0.059 0.141,0.087 0.175,0.095 h 0.112 l 0.004,-0.002 c -0.004,-0.018 -0.056,-0.056 -0.11,-0.093 -0.137,-0.093 -0.279,-0.18 -0.422,-0.264 -0.09,-0.049 -0.149,-0.08 -0.178,-0.084 h -0.103 c 0.006,0.015 0.033,0.038 0.109,0.084 z m 0.666,13.42699957 c -0.052,0.149 -0.103,0.294 -0.16,0.438 -0.024,0.087 -0.002,0.133 0.074,0.143 h 0.367 c 0.078,-0.01 0.137,-0.056 0.181,-0.143 0.06,-0.144 0.12,-0.289 0.174,-0.438 0.028,-0.092 0.004,-0.141 -0.07,-0.149 h -0.384 c -0.082,0.008 -0.144,0.057 -0.182,0.149 z m -11.85,-11.4109995 h 0.265 c 0.064,-0.008 0.122,-0.048 0.183,-0.124 0.089,-0.123 0.178,-0.243 0.268,-0.36 0.054,-0.073 0.055,-0.11 0.008,-0.119 h -0.248 c -0.055,0.009 -0.115,0.047 -0.181,0.119 -0.097,0.117 -0.193,0.237 -0.287,0.36 -0.053,0.076 -0.055,0.116 -0.008,0.124 z m 12.398,-0.124 c 0.062,0.076 0.119,0.116 0.18,0.124 h 0.239 c 0.042,-0.008 0.036,-0.048 -0.022,-0.124 -0.098,-0.123 -0.199,-0.243 -0.305,-0.36 -0.066,-0.072 -0.126,-0.11 -0.176,-0.119 h -0.221 c -0.044,0.009 -0.035,0.046 0.02,0.119 0.098,0.117 0.193,0.237 0.285,0.36 z m -9.735,-1.53300007 h 0.253 c 0.054,-0.008 0.108,-0.036 0.164,-0.095 0.079,-0.093 0.163,-0.18 0.241,-0.264 0.05,-0.054 0.051,-0.08 0.012,-0.084 h -0.219 c -0.052,0.004 -0.106,0.033 -0.166,0.084 -0.094,0.084 -0.185,0.171 -0.275,0.264 -0.052,0.058 -0.054,0.087 -0.01,0.095 z m 0.81,1.05400007 c -0.075,0.009 -0.13,0.047 -0.168,0.119 -0.046,0.117 -0.094,0.237 -0.142,0.36 -0.02,0.076 0.004,0.116 0.08,0.124 h 0.377 c 0.082,-0.008 0.131,-0.048 0.163,-0.124 0.038,-0.123 0.078,-0.243 0.116,-0.36 0.018,-0.072 -0.01,-0.11 -0.078,-0.119 z m -0.29,-2.26100007 c 0.15,-0.058 0.305,-0.108 0.457,-0.154 0.125,-0.04 0.131,-0.043 0.135,-0.046 h -0.063 c -0.01,0.001 -0.054,0.007 -0.182,0.046 -0.161,0.046 -0.323,0.096 -0.478,0.154 -0.13,0.045 -0.13,0.05 -0.132,0.056 h 0.082 c 0.026,-0.004 0.08,-0.021 0.181,-0.056 z m 1.091,0.764 c -0.054,0.004 -0.102,0.033 -0.146,0.084 -0.06,0.084 -0.115,0.171 -0.173,0.264 -0.046,0.086 0.013,0.093 0.036,0.095 h 0.283 c 0.059,-0.008 0.105,-0.037 0.141,-0.095 0.048,-0.093 0.094,-0.18 0.14,-0.264 0.026,-0.054 0.016,-0.08 -0.034,-0.084 z m -0.861,-0.711 10e-4,0.003 h 0.123 c 0.035,-0.004 0.083,-0.022 0.167,-0.056 0.127,-0.058 0.253,-0.108 0.382,-0.154 0.06,-0.023 0.084,-0.031 0.1,-0.043 l -0.003,-0.003 h -0.095 c -0.016,0.001 -0.064,0.013 -0.169,0.046 -0.136,0.046 -0.273,0.096 -0.406,0.154 -0.091,0.037 -0.095,0.045 -0.1,0.053 z m -1.858,1.154 h 0.199 c 0.048,-0.008 0.108,-0.036 0.179,-0.095 0.108,-0.093 0.218,-0.18 0.332,-0.264 0.065,-0.054 0.083,-0.08 0.053,-0.084 h -0.177 c -0.042,0.004 -0.101,0.033 -0.18,0.084 -0.119,0.084 -0.239,0.171 -0.354,0.264 -0.072,0.058 -0.088,0.087 -0.052,0.095 z m 2.521,-1.157 0.01,0.006 h 0.152 c 0.038,-0.004 0.08,-0.022 0.141,-0.056 0.094,-0.058 0.188,-0.108 0.279,-0.154 0.046,-0.023 0.058,-0.031 0.066,-0.043 l -0.006,-0.002 -0.002,-0.001 h -0.116 c -0.029,0.003 -0.079,0.019 -0.145,0.046 -0.105,0.046 -0.209,0.096 -0.315,0.154 -0.04,0.022 -0.061,0.037 -0.064,0.05 z m -3.209,1.157 c 0.038,-0.008 0.096,-0.036 0.182,-0.095 0.129,-0.093 0.264,-0.18 0.398,-0.264 0.072,-0.046 0.102,-0.069 0.102,-0.084 h -0.13 c -0.031,0.004 -0.091,0.033 -0.177,0.084 -0.144,0.084 -0.281,0.171 -0.418,0.264 -0.051,0.037 -0.1,0.075 -0.1,0.093 l 0.008,0.002 z m 1.376,5.46800007 c -0.022,0.166 -0.038,0.331 -0.056,0.497 -0.003,0.104 0.048,0.159 0.143,0.168 h 0.493 c 0.105,-0.009 0.161,-0.064 0.181,-0.168 0.014,-0.166 0.028,-0.331 0.044,-0.497 0,-0.1 -0.048,-0.153 -0.146,-0.164 h -0.48 c -0.102,0.011 -0.157,0.064 -0.179,0.164 z m 6.059,-6.67500007 c 0.068,0.034 0.115,0.052 0.152,0.056 h 0.147 l 0.008,-0.003 v -0.003 c -0.006,-0.013 -0.03,-0.028 -0.074,-0.05 -0.114,-0.058 -0.225,-0.108 -0.343,-0.154 -0.087,-0.033 -0.131,-0.045 -0.151,-0.046 h -0.114 l -0.006,0.003 c 0.008,0.012 0.026,0.02 0.07,0.043 0.106,0.046 0.209,0.096 0.311,0.154 z m -5.625,4.94100007 h 0.449 c 0.095,-0.013 0.155,-0.06 0.177,-0.152 0.026,-0.149 0.055,-0.294 0.084,-0.438 0.005,-0.088 -0.031,-0.133 -0.116,-0.143 h -0.428 c -0.09,0.01 -0.148,0.055 -0.18,0.143 -0.036,0.144 -0.068,0.289 -0.104,0.438 -0.006,0.092 0.03,0.139 0.118,0.152 z m 0.066,4.145 h -0.5 c -0.104,0.011 -0.158,0.069 -0.17,0.178 -0.002,0.088 -0.002,0.178 -0.002,0.266 0,0.093 0,0.182 0.002,0.27 0.012,0.111 0.066,0.169 0.17,0.179 h 0.5 c 0.106,-0.01 0.164,-0.068 0.173,-0.179 0,-0.088 -0.003,-0.177 -0.003,-0.27 0,-0.088 0.003,-0.178 0.003,-0.266 -0.009,-0.109 -0.067,-0.167 -0.173,-0.178 z m 2.852,7.1149995 h -0.404 c -0.08,0.007 -0.116,0.047 -0.116,0.124 0.016,0.122 0.036,0.243 0.054,0.36 0.022,0.072 0.068,0.11 0.143,0.116 h 0.373 c 0.076,-0.006 0.114,-0.044 0.118,-0.116 -0.01,-0.117 -0.015,-0.238 -0.024,-0.36 -0.013,-0.077 -0.06,-0.117 -0.144,-0.124 z m 1.228,-15.35299957 c 0.014,0.084 0.03,0.171 0.044,0.264 0.02,0.058 0.058,0.087 0.119,0.095 h 0.309 c 0.062,-0.008 0.086,-0.037 0.074,-0.095 -0.03,-0.093 -0.058,-0.18 -0.086,-0.264 -0.023,-0.051 -0.063,-0.08 -0.119,-0.084 h -0.268 c -0.055,0.004 -0.079,0.033 -0.073,0.084 z m 0.484,-1.002 c 0.062,0.046 0.124,0.096 0.186,0.154 0.044,0.034 0.081,0.052 0.125,0.056 h 0.178 c 0.016,-0.003 0.044,-0.01 -0.02,-0.056 -0.074,-0.058 -0.15,-0.108 -0.228,-0.154 -0.048,-0.027 -0.089,-0.043 -0.121,-0.046 h -0.138 c -0.015,0.001 -0.027,0.012 0.018,0.046 z m 0.334,3.01800007 c 0.081,-0.008 0.123,-0.048 0.115,-0.124 -0.022,-0.123 -0.046,-0.243 -0.069,-0.36 -0.022,-0.072 -0.069,-0.11 -0.15,-0.119 h -0.379 c -0.078,0.009 -0.114,0.047 -0.114,0.119 0.014,0.117 0.024,0.237 0.04,0.36 0.016,0.076 0.066,0.116 0.15,0.124 z m -0.597,13.8209995 c 0,0.072 0.036,0.11 0.114,0.116 h 0.379 c 0.081,-0.006 0.128,-0.044 0.15,-0.116 0.023,-0.117 0.047,-0.238 0.069,-0.36 0.008,-0.077 -0.034,-0.117 -0.115,-0.124 h -0.407 c -0.084,0.007 -0.134,0.047 -0.15,0.124 -0.016,0.122 -0.026,0.243 -0.04,0.36 z m 0.174,-12.3339995 c 0.01,0.144 0.02,0.289 0.028,0.438 0.016,0.092 0.071,0.139 0.171,0.152 h 0.488 c 0.096,-0.013 0.146,-0.06 0.146,-0.152 -0.016,-0.149 -0.034,-0.294 -0.052,-0.438 -0.018,-0.088 -0.076,-0.133 -0.171,-0.143 h -0.467 c -0.092,0.01 -0.139,0.055 -0.143,0.143 z m -0.527,-4.29500007 h 0.187 c 0.036,-0.006 0.049,-0.022 0.031,-0.056 -0.033,-0.058 -0.066,-0.108 -0.098,-0.154 -0.026,-0.028 -0.054,-0.043 -0.082,-0.046 h -0.141 c -0.028,0.003 -0.038,0.018 -0.028,0.046 0.016,0.046 0.036,0.096 0.054,0.154 0.014,0.034 0.042,0.052 0.077,0.056 z m -1.805,0 h 0.171 c 0.038,-0.006 0.072,-0.022 0.11,-0.056 0.053,-0.058 0.107,-0.108 0.163,-0.154 0.03,-0.028 0.034,-0.043 0.01,-0.046 h -0.132 c -0.029,0.003 -0.067,0.019 -0.111,0.046 -0.07,0.046 -0.136,0.096 -0.204,0.154 -0.036,0.034 -0.042,0.05 -0.007,0.056 z m -0.013,7.28400007 h 0.527 c 0.105,-0.009 0.165,-0.064 0.18,-0.168 0.003,-0.166 0.003,-0.331 0.009,-0.497 -0.009,-0.1 -0.066,-0.153 -0.172,-0.164 h -0.511 c -0.106,0.011 -0.166,0.064 -0.18,0.164 -0.01,0.166 -0.014,0.331 -0.022,0.497 0.008,0.104 0.064,0.159 0.169,0.168 z m 0.581,-6.13300007 h 0.303 c 0.066,-0.008 0.097,-0.037 0.113,-0.095 0.008,-0.093 0.018,-0.18 0.03,-0.264 0,-0.051 -0.026,-0.08 -0.083,-0.084 h -0.261 c -0.057,0.004 -0.095,0.033 -0.115,0.084 -0.024,0.084 -0.045,0.171 -0.065,0.264 -0.008,0.058 0.02,0.087 0.078,0.095 z m -0.46,3.73400007 h 0.48 c 0.099,-0.013 0.153,-0.06 0.167,-0.152 0.004,-0.149 0.01,-0.294 0.016,-0.438 -0.006,-0.088 -0.056,-0.133 -0.148,-0.143 h -0.458 c -0.092,0.01 -0.145,0.055 -0.165,0.143 -0.013,0.144 -0.026,0.289 -0.038,0.438 0.002,0.092 0.049,0.139 0.146,0.152 z m 0.651,-2.68 h -0.373 c -0.075,0.009 -0.121,0.047 -0.143,0.119 -0.018,0.117 -0.038,0.237 -0.054,0.36 0,0.076 0.036,0.116 0.116,0.124 h 0.404 c 0.084,-0.008 0.131,-0.048 0.144,-0.124 0.009,-0.123 0.014,-0.243 0.024,-0.36 -0.004,-0.072 -0.042,-0.11 -0.118,-0.119 z m -0.267,6.825 h -0.536 c -0.11,0.011 -0.17,0.069 -0.182,0.178 0,0.088 0,0.178 0,0.266 0,0.093 0,0.182 0,0.27 0.012,0.111 0.072,0.169 0.182,0.179 h 0.536 c 0.109,-0.01 0.169,-0.068 0.181,-0.179 0,-0.088 0,-0.177 0,-0.27 0,-0.088 0,-0.178 0,-0.266 -0.012,-0.109 -0.072,-0.167 -0.181,-0.178 z"
       id="Fill-1"
       fill="#008bc0"
       style="fill:#99232e;fill-opacity:1" />
  </g>
  <metadata
     id="metadata3">
    <rdf:RDF>
      <cc:Work
         rdf:about="">
        <dc:title>AIChE_Global_Home_Logo_Tagline_Below_PMS2925</dc:title>
      </cc:Work>
    </rdf:RDF>
  </metadata>
  <g
     id="g1"
     transform="matrix(0.25623198,0,0,0.25623198,96.734258,5.4313666)">
    <text
       id="text2"
       xml:space="preserve"
       x="-277.70126"
       y="64.3778"
       style="font-size:3.49091px;stroke-width:0.290909"><tspan
         style="font-variant:normal;font-weight:normal;font-size:106.764px;font-family:Palatino;writing-mode:lr-tb;fill:#99232e icc-color(sRGB-IEC61966-2, 0.1, 0.59999084, 0.13725281, 0.1803894);fill-opacity:1;fill-rule:nonzero;stroke:none;stroke-width:0.290909"
         x="-277.70126 -202.06992 -143.84103 -101.73346 -39.661087 11.414636 42.418808 73.422958"
         y="64.3778"
         sodipodi:role="line"
         id="tspan2">Cornell </tspan></text>
    <text
       id="text3"
       xml:space="preserve"
       transform="scale(1.0099505,0.99014751)"
       x="99.224762"
       y="63.889282"
       style="font-size:3.45651px;stroke-width:0.288043"><tspan
         style="font-variant:normal;font-weight:normal;font-size:105.712px;font-family:Avenir;writing-mode:lr-tb;fill:#99232e icc-color(sRGB-IEC61966-2, 0.1, 0.59999084, 0.13725281, 0.1803894);fill-opacity:1;fill-rule:nonzero;stroke:#99232e icc-color(sRGB-IEC61966-2, 0.1, 0.59999084, 0.13725281, 0.1803894);stroke-width:2.25826;stroke-linecap:butt;stroke-linejoin:miter;stroke-miterlimit:10;stroke-dasharray:none;stroke-opacity:1"
         x="99.224762 175.68607 205.21135 281.67264 342.48862"
         y="63.889282"
         sodipodi:role="line"
         id="tspan3">AIChE</tspan></text>
  </g>
</svg>
